<?xml version="1.0" encoding="utf-8"?>
<!-- Generator: Adobe Illustrator 19.2.1, SVG Export Plug-In . SVG Version: 6.00 Build 0)  -->
<svg version="1.1" id="layer" xmlns="http://www.w3.org/2000/svg" xmlns:xlink="http://www.w3.org/1999/xlink" x="0px" y="0px"
	 viewBox="0 0 652 652" style="enable-background:new 0 0 652 652;" xml:space="preserve">
<style type="text/css">
	.st0{fill:#231815;}
	.st1{fill:#656464;}
</style>
<path class="st0" d="M20.7,251.1h11.5l5.5,31.8c1.1,6.7,2.1,13.5,3.1,20.1h0.4c1.3-6.7,2.7-13.5,4.1-20.1l7.7-31.8h9.7l7.7,31.8
	c1.4,6.6,2.8,13.4,4.2,20.1h0.4c1-6.7,2-13.5,3-20.1l5.5-31.8h10.7l-12,63H68.3l-7.8-33.2c-1.1-4.9-2-9.7-2.8-14.5h-0.4
	c-0.9,4.8-1.8,9.6-2.9,14.5l-7.6,33.2H33.2L20.7,251.1z"/>
<path class="st0" d="M129.4,286c0-7.3-3.2-11.8-9.6-11.8c-5.6,0-10.4,4.1-11.4,11.8H129.4z M97.7,290.5c0-15.4,10.7-24.9,21.8-24.9
	c12.8,0,19.6,9.2,19.6,22.5c0,2.1-0.2,4.2-0.5,5.4h-30.1c1,8.4,6.4,13.2,14,13.2c4,0,7.5-1.3,11-3.5l3.8,6.9
	c-4.5,3-10.2,5.1-16.2,5.1C107.9,315.2,97.7,306.1,97.7,290.5"/>
<path class="st0" d="M180.2,289.8c0-9.4-3.1-15-10.2-15c-3.5,0-6.7,1.7-10.4,5.3v22.1c3.4,2.9,6.8,4,9.5,4
	C175.4,306.1,180.2,300.5,180.2,289.8 M158.5,309.1h-0.3l-1,5h-8.8v-68h11.1v17.5l-0.3,7.9c4-3.5,8.9-5.9,13.7-5.9
	c11.9,0,18.7,9.4,18.7,24c0,16.3-9.7,25.6-20.2,25.6C167.1,315.2,162.5,313,158.5,309.1"/>
<path class="st0" d="M252.6,290.5c0-9.5-4.2-15.8-11.2-15.8c-6.9,0-11.1,6.3-11.1,15.8c0,9.4,4.1,15.7,11.1,15.7
	C248.3,306.2,252.6,299.9,252.6,290.5 M219,290.5c0-15.8,10.7-24.9,22.5-24.9c11.9,0,22.6,9.1,22.6,24.9c0,15.7-10.7,24.8-22.6,24.8
	C229.6,315.2,219,306.2,219,290.5"/>
<path class="st0" d="M274.7,275.5h-6.4v-8.3l6.4-0.5v-4.9c0-9.8,4.5-17,15.7-17c3.4,0,6.6,0.8,8.7,1.6l-2.1,8.3
	c-1.7-0.8-3.6-1.2-5.2-1.2c-3.9,0-6,2.5-6,8v5.1h9.3v8.8h-9.3v38.6h-11.1V275.5z"/>
<path class="st0" d="M319.3,306l6.6-7.6c4.5,4.2,10.6,7.1,16.4,7.1c7.1,0,11-3.2,11-8.1c0-5.2-4-6.8-9.7-9.2l-8.7-3.8
	c-6.2-2.6-12.7-7.5-12.7-16.8c0-10,8.9-17.7,21.2-17.7c7.3,0,14.5,3.1,19.4,8l-5.7,7.1c-4-3.4-8.3-5.4-13.7-5.4
	c-6,0-9.9,2.8-9.9,7.4c0,4.9,4.8,6.7,10,8.9l8.6,3.6c7.4,3.2,12.7,7.9,12.7,17.1c0,10.2-8.5,18.7-22.6,18.7
	C333.5,315.2,325.2,311.9,319.3,306"/>
<path class="st0" d="M371.3,290.5c0-15.8,11.1-24.9,23.7-24.9c6.1,0,10.4,2.3,13.9,5.3l-5.4,7.2c-2.5-2.2-4.9-3.5-7.9-3.5
	c-7.6,0-12.9,6.3-12.9,15.8c0,9.4,5.2,15.7,12.6,15.7c3.7,0,7-1.8,9.7-4l4.5,7.3c-4.4,3.9-10,5.8-15.4,5.8
	C381.3,315.2,371.3,306.2,371.3,290.5"/>
<path class="st0" d="M416.9,266.8H428v47.3h-11.1V266.8z M415.7,252.2c0-3.8,2.9-6.4,6.8-6.4c3.9,0,6.8,2.6,6.8,6.4
	c0,3.7-2.9,6.3-6.8,6.3C418.5,258.5,415.7,255.9,415.7,252.2"/>
<path class="st0" d="M468.9,286c0-7.3-3.2-11.8-9.6-11.8c-5.6,0-10.4,4.1-11.4,11.8H468.9z M437.2,290.5c0-15.4,10.7-24.9,21.8-24.9
	c12.8,0,19.6,9.2,19.6,22.5c0,2.1-0.2,4.2-0.5,5.4H448c1,8.4,6.4,13.2,14,13.2c4,0,7.5-1.3,11-3.5l3.8,6.9c-4.5,3-10.2,5.1-16.2,5.1
	C447.4,315.2,437.2,306.1,437.2,290.5"/>
<path class="st0" d="M488,266.8h9.2l0.8,6.4h0.4c4.2-4.1,9.1-7.5,15.5-7.5c10.1,0,14.6,6.8,14.6,18.8v29.7h-11.1v-28.2
	c0-7.8-2.2-10.7-7.4-10.7c-4.1,0-6.8,2-10.8,5.9v33.1H488V266.8z"/>
<path class="st0" d="M537.5,290.5c0-15.8,11.1-24.9,23.7-24.9c6.1,0,10.4,2.3,13.9,5.3l-5.4,7.2c-2.5-2.2-4.9-3.5-7.9-3.5
	c-7.6,0-12.9,6.3-12.9,15.8c0,9.4,5.2,15.7,12.6,15.7c3.7,0,7-1.8,9.7-4l4.5,7.3c-4.4,3.9-10,5.8-15.4,5.8
	C547.4,315.2,537.5,306.2,537.5,290.5"/>
<path class="st0" d="M611.1,286c0-7.3-3.2-11.8-9.6-11.8c-5.6,0-10.4,4.1-11.4,11.8H611.1z M579.4,290.5c0-15.4,10.7-24.9,21.8-24.9
	c12.8,0,19.6,9.2,19.6,22.5c0,2.1-0.2,4.2-0.5,5.4h-30.1c1,8.4,6.4,13.2,14,13.2c4,0,7.5-1.3,11-3.5l3.8,6.9
	c-4.5,3-10.2,5.1-16.2,5.1C589.6,315.2,579.4,306.1,579.4,290.5"/>
<polygon class="st1" points="40.6,353.5 26.1,353.5 27.1,348.4 62.1,348.4 61.1,353.5 46.6,353.5 37.6,398.5 31.7,398.5 "/>
<g>
	<path class="st1" d="M61.2,361.4H66l-0.8,7.1h0.3c3-4.5,7-8,11.5-8c1.4,0,2.4,0.2,3.5,0.7l-2.1,5.2c-0.8-0.4-1.8-0.6-3.2-0.6
		c-3.7,0-7.8,3.3-10.9,9.3l-4.7,23.5h-5.8L61.2,361.4z"/>
	<path class="st1" d="M107,398.5h-4.8l0.6-5.7h-0.3c-4,3.6-8.3,6.6-12.8,6.6c-6.3,0-8.8-3.6-8.8-9.2c0-1.8,0.2-3.1,0.6-5.1l4.7-23.7
		h5.9l-4.7,22.9c-0.4,2-0.6,3.1-0.6,4.4c0,3.7,1.7,5.7,5.5,5.7c2.9,0,6.5-2.1,11-6.7l5.3-26.3h5.8L107,398.5z"/>
	<path class="st1" d="M115.3,392.4l3.7-2.9c2.3,3.2,5.7,5.4,9.5,5.4c4.3,0,7.9-2.8,7.9-6.2c0-2.7-1.6-4.2-6.8-7
		c-5.7-3.1-8.5-6-8.5-10.2c0-6.6,5.8-11.1,12.8-11.1c4.5,0,8.2,2.1,10.9,5l-3.4,3.3c-2-2.1-4.4-3.7-7.7-3.7c-4,0-7,2.7-7,5.8
		s3.2,4.7,6.6,6.6c6.6,3.7,8.7,6.5,8.7,10.5c0,7-5.9,11.5-13.9,11.5C123.1,399.4,117.8,396.3,115.3,392.4"/>
	<path class="st1" d="M150.8,391.2c0-1.5,0.2-2.7,0.4-4.1l4.4-20.9h-5.4l0.8-4.4l5.8-0.4l2.7-10.2h5l-2.1,10.2h9.4l-0.9,4.7h-9.5
		l-4.4,21.2c-0.2,0.9-0.2,1.8-0.2,2.7c0,3.1,1.2,4.6,4.7,4.6c1.4,0,2.7-0.6,3.9-1.1l1.3,4.2c-1.7,0.8-4.1,1.7-7,1.7
		C153.2,399.4,150.8,395.8,150.8,391.2"/>
	<path class="st1" d="M190.3,391.2c0-1.5,0.2-2.7,0.4-4.1l4.4-20.9h-5.4l0.8-4.4l5.8-0.4l2.7-10.2h5l-2.1,10.2h9.4l-0.9,4.7h-9.5
		l-4.4,21.2c-0.2,0.9-0.2,1.8-0.2,2.7c0,3.1,1.2,4.6,4.7,4.6c1.4,0,2.7-0.6,3.9-1.1l1.3,4.2c-1.7,0.8-4.1,1.7-7,1.7
		C192.6,399.4,190.3,395.8,190.3,391.2"/>
	<path class="st1" d="M222.2,344.1h5.9l-3.7,17.9l-1.2,4.7h0.3c4.2-3.6,8.3-6.3,12.8-6.3c6.3,0,8.8,3.5,8.8,9.2
		c0,1.8-0.2,3.1-0.6,5.1l-4.7,23.7h-5.8l4.6-22.9c0.4-2,0.6-3.1,0.6-4.4c0-3.7-1.7-5.7-5.5-5.7c-2.9,0-6.5,2.1-11.2,6.7l-5.3,26.3
		h-5.8L222.2,344.1z"/>
	<path class="st1" d="M276.5,377.2c0.2-1.2,0.4-2.4,0.4-3.8c0-4.2-1.8-8.3-7.2-8.3c-5.4,0-10.8,4.7-12.7,12.1H276.5z M270.4,360.5
		c8.3,0,11.5,5.8,11.5,13.4c0,3-0.8,5.9-1.3,7.3h-24.1c-1.4,9.5,3.6,13.6,10.1,13.6c2.9,0,6-1.4,8.3-3.2l2.3,3.9c-3,2.1-7.2,4-12,4
		c-8.8,0-14.6-5.6-14.6-15.5C250.5,370,260.7,360.5,270.4,360.5"/>
	<path class="st1" d="M326.6,387.4l3.4-16.6c-2.1-3.9-4.7-5.5-7.6-5.5c-7.4,0-14.3,9.5-14.3,19.7c0,6.4,2.7,9.5,6.8,9.5
		C318.8,394.6,322.9,392.3,326.6,387.4 M332.4,358.6l2.9-14.5h5.9l-11,54.4h-4.8l0.6-5.5h-0.3c-3.6,3.8-8.3,6.4-12.9,6.4
		c-6.5,0-10.7-4.7-10.7-13.4c0-14.3,9.8-25.5,20.1-25.5c4,0,7,2.1,8.8,5.4h0.2L332.4,358.6z"/>
	<path class="st1" d="M349.6,350.2c0-2.5,2.1-4.4,4.4-4.4c2,0,3.7,1.3,3.7,3.5c0,2.5-2.1,4.4-4.4,4.4
		C351.4,353.7,349.6,352.5,349.6,350.2 M348.4,361.4h5.9l-7.5,37.1H341L348.4,361.4z"/>
	<path class="st1" d="M385.9,366.1h-14.7l-6.6,32.4h-5.8l6.5-32.4h-4.8l0.8-4.4l5-0.4l1.1-5.4c1.6-7.5,5.8-12,12.2-12
		c3,0,5,0.8,7.1,1.8l-2.1,4.3c-1.2-0.7-2.6-1.3-4.6-1.3c-3.6,0-6,2.7-6.8,7.1l-1.1,5.6h14.8l1.2-6.2c1.5-7.5,5.6-12,11.8-12
		c2.7,0,4.7,0.8,6.6,1.8l-2.1,4.3c-1-0.7-2.4-1.3-4-1.3c-3.4,0-5.5,2.8-6.3,7.1l-1.3,6.3h7.6l-1,4.7h-7.5l-6.5,32.4h-5.9
		L385.9,366.1z"/>
	<path class="st1" d="M425.3,377.2c0.2-1.2,0.4-2.4,0.4-3.8c0-4.2-1.8-8.3-7.2-8.3c-5.4,0-10.8,4.7-12.7,12.1H425.3z M419.2,360.5
		c8.3,0,11.5,5.8,11.5,13.4c0,3-0.8,5.9-1.3,7.3h-24.1c-1.4,9.5,3.6,13.6,10.1,13.6c2.9,0,6-1.4,8.3-3.2l2.3,3.9c-3,2.1-7.2,4-12,4
		c-8.8,0-14.6-5.6-14.6-15.5C399.4,370,409.5,360.5,419.2,360.5"/>
	<path class="st1" d="M442,361.4h4.8l-0.8,7.1h0.3c3-4.5,7-8,11.5-8c1.4,0,2.4,0.2,3.5,0.7l-2.1,5.2c-0.8-0.4-1.8-0.6-3.2-0.6
		c-3.7,0-7.8,3.3-10.9,9.3l-4.7,23.5h-5.8L442,361.4z"/>
	<path class="st1" d="M485.5,377.2c0.2-1.2,0.4-2.4,0.4-3.8c0-4.2-1.8-8.3-7.2-8.3c-5.4,0-10.8,4.7-12.7,12.1H485.5z M479.4,360.5
		c8.3,0,11.5,5.8,11.5,13.4c0,3-0.8,5.9-1.3,7.3h-24.1c-1.4,9.5,3.6,13.6,10.1,13.6c2.9,0,6-1.4,8.3-3.2l2.3,3.9c-3,2.1-7.2,4-12,4
		c-8.8,0-14.6-5.6-14.6-15.5C459.5,370,469.7,360.5,479.4,360.5"/>
	<path class="st1" d="M502.2,361.4h4.8l-0.5,5.6h0.3c4.2-3.7,8.3-6.5,13-6.5c6.3,0,8.8,3.5,8.8,9.2c0,1.8-0.2,3.1-0.6,5.1l-4.7,23.7
		h-5.8l4.6-22.9c0.4-2,0.6-3.1,0.6-4.4c0-3.7-1.7-5.7-5.5-5.7c-2.9,0-6.5,2.1-11.2,6.7l-5.3,26.3h-5.8L502.2,361.4z"/>
	<path class="st1" d="M534.2,384.5c0-13.8,9.9-24.1,20.7-24.1c4.4,0,7.4,2,9.6,4.5l-3.4,3.7c-1.9-2.3-3.7-3.4-6.6-3.4
		c-7.4,0-14.4,8.7-14.4,18.9c0,6.7,2.9,10.4,8.8,10.4c3.3,0,6-1.5,8.3-3.3l2.6,3.8c-2.7,2.1-6.5,4.4-11.9,4.4
		C539.8,399.4,534.2,394,534.2,384.5"/>
	<path class="st1" d="M590.8,377.2c0.2-1.2,0.4-2.4,0.4-3.8c0-4.2-1.8-8.3-7.2-8.3c-5.4,0-10.8,4.7-12.7,12.1H590.8z M584.7,360.5
		c8.3,0,11.5,5.8,11.5,13.4c0,3-0.8,5.9-1.3,7.3h-24.1c-1.4,9.5,3.6,13.6,10.1,13.6c2.9,0,6-1.4,8.3-3.2l2.3,3.9c-3,2.1-7.2,4-12,4
		c-8.8,0-14.6-5.6-14.6-15.5C564.8,370,575,360.5,584.7,360.5"/>
</g>
</svg>
